<svg xmlns="http://www.w3.org/2000/svg" width="1280" height="360" viewBox="0 0 1280 360"><defs><linearGradient id="bg-bn" x1="0" y1="0" x2="1" y2="1"><stop offset="0" stop-color="#0B1020"/><stop offset="1" stop-color="#151B2E"/></linearGradient><radialGradient id="glow-bn" cx="0.85" cy="0.1" r="0.7"><stop offset="0" stop-color="#C9A227" stop-opacity="0.10"/><stop offset="1" stop-color="#C9A227" stop-opacity="0"/></radialGradient><pattern id="grid-bn" width="44" height="44" patternUnits="userSpaceOnUse"><path d="M44 0H0V44" fill="none" stroke="#FFFFFF" stroke-opacity="0.035"/></pattern></defs><rect width="1280" height="360" fill="url(#bg-bn)"/><rect width="1280" height="360" fill="url(#grid-bn)"/><rect width="1280" height="360" fill="url(#glow-bn)"/><rect x="96" y="84" width="152" height="188" rx="16" fill="#11172B" stroke="#FFFFFF" stroke-opacity="0.1"/><rect x="104" y="92" width="136" height="172" rx="10" fill="none" stroke="#FFFFFF" stroke-opacity="0.05"/><rect x="122" y="120" width="100" height="9" rx="4.5" fill="#E6E9F2" fill-opacity="0.55"/><rect x="122" y="150" width="82" height="9" rx="4.5" fill="#E6E9F2" fill-opacity="0.35"/><path d="M118 155 h108" stroke="#E05D5D" stroke-width="2.4" stroke-linecap="round"/><rect x="122" y="178" width="92" height="15" rx="4" fill="#3FB68B" fill-opacity="0.16"/><rect x="126" y="181" width="70" height="9" rx="4.5" fill="#3FB68B" fill-opacity="0.85"/><rect x="122" y="212" width="100" height="9" rx="4.5" fill="#E6E9F2" fill-opacity="0.55"/><rect x="122" y="234" width="64" height="9" rx="4.5" fill="#E6E9F2" fill-opacity="0.30"/><circle cx="248" cy="84" r="7" fill="#C9A227"/><text x="300" y="128" font-family="system-ui, -apple-system, 'PingFang SC', 'Noto Sans CJK SC', sans-serif" font-size="13" letter-spacing="4" fill="#C9A227">EVIDENCE-BOUND · CONTROLLED WORD REVISION</text><text x="298" y="182" font-family="system-ui, -apple-system, 'PingFang SC', 'Noto Sans CJK SC', sans-serif" font-size="46" font-weight="bold" fill="#E6E9F2">thesis-revision-professor</text><text x="300" y="224" font-family="system-ui, -apple-system, 'PingFang SC', 'Noto Sans CJK SC', sans-serif" font-size="22" fill="#8B93A7">证据绑定的论文审稿与 Word 受控修改系统</text><rect x="300" y="252" width="80.0" height="30" rx="15" fill="#FFFFFF" fill-opacity="0.04" stroke="#FFFFFF" stroke-opacity="0.1"/><text x="314" y="271" font-family="system-ui, -apple-system, 'PingFang SC', 'Noto Sans CJK SC', sans-serif" font-size="13" fill="#C9CEDD">盲审预检</text><rect x="394.0" y="252" width="80.0" height="30" rx="15" fill="#FFFFFF" fill-opacity="0.04" stroke="#FFFFFF" stroke-opacity="0.1"/><text x="408.0" y="271" font-family="system-ui, -apple-system, 'PingFang SC', 'Noto Sans CJK SC', sans-serif" font-size="13" fill="#C9CEDD">证据账本</text><rect x="488.0" y="252" width="80.0" height="30" rx="15" fill="#FFFFFF" fill-opacity="0.04" stroke="#FFFFFF" stroke-opacity="0.1"/><text x="502.0" y="271" font-family="system-ui, -apple-system, 'PingFang SC', 'Noto Sans CJK SC', sans-serif" font-size="13" fill="#C9CEDD">修订痕迹</text><rect x="582.0" y="252" width="127.84" height="30" rx="15" fill="#FFFFFF" fill-opacity="0.04" stroke="#FFFFFF" stroke-opacity="0.1"/><text x="596.0" y="271" font-family="system-ui, -apple-system, 'PingFang SC', 'Noto Sans CJK SC', sans-serif" font-size="13" fill="#C9CEDD">AI 辅助内容清单</text><rect x="96" y="316" width="1088" height="1.6" fill="#C9A227" fill-opacity="0.85"/></svg>